<?xml version="1.0" standalone="no"?>
<!DOCTYPE svg PUBLIC "-//W3C//DTD SVG 20010904//EN"
 "http://www.w3.org/TR/2001/REC-SVG-20010904/DTD/svg10.dtd">
<svg version="1.0" xmlns="http://www.w3.org/2000/svg"
 width="512.000000pt" height="533.000000pt" viewBox="0 0 512.000000 533.000000"
 preserveAspectRatio="xMidYMid meet">

<g transform="translate(0.000000,533.000000) scale(0.100000,-0.100000)"
fill="#000000" stroke="none">
<path d="M1125 4695 c-343 -65 -610 -328 -680 -667 -13 -63 -15 -258 -13
-1483 l3 -1410 32 -95 c47 -138 110 -240 212 -341 126 -125 262 -200 423 -233
68 -14 235 -16 1458 -16 1500 0 1445 -2 1590 55 109 43 201 104 291 194 102
102 165 204 212 341 l32 95 0 1435 c0 1624 7 1479 -84 1665 -88 178 -205 295
-386 384 -189 93 -44 85 -1625 88 -1128 1 -1408 -1 -1465 -12z m761 -801 c43
-21 84 -88 84 -138 0 -50 -32 -110 -72 -134 -18 -11 -64 -25 -103 -31 -87 -13
-139 -48 -174 -116 -26 -49 -26 -52 -29 -320 -1 -148 -5 -281 -8 -295 -3 -13
-46 -65 -96 -116 -100 -102 -116 -137 -97 -209 8 -31 32 -60 99 -126 49 -48
91 -97 94 -110 3 -13 7 -148 8 -299 3 -272 3 -275 28 -319 44 -78 96 -107 225
-127 51 -7 111 -65 120 -117 18 -93 -40 -179 -129 -192 -159 -24 -374 88 -478
249 -69 108 -79 158 -85 436 l-5 245 -57 60 c-91 96 -124 162 -141 282 -20
143 33 296 140 403 l57 57 6 244 c4 191 9 256 22 299 58 186 182 312 365 371
71 23 181 24 226 3z m1565 0 c184 -55 315 -185 374 -374 13 -43 18 -108 22
-298 l6 -243 57 -59 c108 -109 159 -259 139 -405 -16 -117 -50 -185 -140 -280
l-57 -60 -5 -245 c-4 -211 -8 -254 -26 -311 -61 -192 -238 -342 -440 -371 -69
-10 -84 -10 -124 6 -80 30 -118 99 -102 183 9 52 69 110 120 117 129 20 181
49 225 127 25 44 25 47 28 319 1 151 5 286 8 299 3 13 45 62 94 110 67 66 91
95 99 126 19 72 3 107 -97 209 -50 51 -93 103 -96 116 -3 14 -7 147 -8 295 -3
268 -3 271 -29 320 -35 68 -87 103 -174 116 -85 13 -129 39 -155 90 -38 73
-14 164 56 209 37 25 147 27 225 4z m-1376 -1157 c106 -59 120 -221 26 -300
-149 -125 -366 26 -297 208 19 50 73 102 114 111 15 3 32 7 37 9 20 8 81 -7
120 -28z m574 5 c72 -34 117 -140 91 -217 -25 -75 -104 -135 -180 -135 -109 0
-202 108 -186 213 21 132 151 198 275 139z m581 3 c56 -29 100 -103 100 -169
0 -97 -89 -186 -185 -186 -168 0 -253 202 -135 320 57 57 149 71 220 35z"/>
</g>
</svg>
